<?xml version="1.0" encoding="UTF-8"?>
<svg version="1.0" viewBox="0 0 225.68 225.69" xml:space="preserve" xmlns="http://www.w3.org/2000/svg">

<path d="m225.68 112.85c0 62.324-50.515 112.84-112.84 112.84-62.314 1e-3 -112.84-50.515-112.84-112.84 0-62.322 50.522-112.85 112.84-112.85 62.329 0 112.84 50.525 112.84 112.85z"/>
<path d="m151.79 112.85c0 21.511-17.439 38.958-38.956 38.958-21.515 0-38.955-17.446-38.955-38.958 0-21.517 17.44-38.956 38.955-38.956 21.517 0 38.956 17.44 38.956 38.956z" fill="#fff"/>
<path d="m116.87 112.85c0 2.227-1.803 4.032-4.03 4.032-2.219 0-4.029-1.805-4.029-4.032 0-2.228 1.81-4.031 4.029-4.031 2.227 0 4.03 1.804 4.03 4.031z"/>
							
								<path d="m20.097 66.216c10.823-21.487 28.895-38.693 51.004-48.415" fill="none" stroke="#fff" stroke-linecap="round" stroke-linejoin="round" stroke-width="2.5007"/>
						
							
								<path d="m207.88 154.58c-10.452 23.771-29.559 42.877-53.335 53.329" fill="none" stroke="#fff" stroke-linecap="round" stroke-linejoin="round" stroke-width="2.5007"/>
					
							
								<path d="m26.954 65.298c9.794-17.665 24.883-31.985 43.118-40.829" fill="none" stroke="#fff" stroke-linecap="round" stroke-linejoin="round" stroke-width="2.5007"/>
			
							
								<path d="m201.25 155.54c-9.625 19.901-25.782 36.058-45.683 45.696" fill="none" stroke="#fff" stroke-linecap="round" stroke-linejoin="round" stroke-width="2.5007"/>
					
								
									<path d="m31.278 68.092c9.515-17.3 24.375-31.246 42.349-39.614" fill="none" stroke="#fff" stroke-linecap="round" stroke-linejoin="round" stroke-width="2.5007"/>
						
							
								<path d="m197.29 151.87c-9.156 19.784-25.053 35.804-44.745 45.11" fill="none" stroke="#fff" stroke-linecap="round" stroke-linejoin="round" stroke-width="2.5007"/>
					
							
								<path d="m194.59 145.04c-7.587 19.257-21.783 35.187-39.797 45" fill="none" stroke="#fff" stroke-linecap="round" stroke-linejoin="round" stroke-width="2.5007"/>
					
							
								<path d="m34.828 72.416c8.355-16.082 21.529-29.25 37.608-37.595" fill="none" stroke="#fff" stroke-linecap="round" stroke-linejoin="round" stroke-width="2.5007"/>
					
							
								<path d="m188.86 145.89c-7.666 17.616-21.282 32.054-38.312 40.767" fill="none" stroke="#fff" stroke-linecap="round" stroke-linejoin="round" stroke-width="2.5007"/>
					
							
								<path d="m40.22 72.872c8.303-15.05 21.152-27.241 36.689-34.73" fill="none" stroke="#fff" stroke-linecap="round" stroke-linejoin="round" stroke-width="2.5007"/>
					
							
								<path d="m42.851 79.472c6.779-14.2 17.759-26.01 31.324-33.834" fill="none" stroke="#fff" stroke-linecap="round" stroke-linejoin="round" stroke-width="2.5007"/>
					
							
								<path d="m176.44 145.88c-6.18 11.878-15.591 21.803-27.065 28.621" fill="none" stroke="#fff" stroke-linecap="round" stroke-linejoin="round" stroke-width="2.5007"/>
					
							
								<path d="m50.691 77.164c6.825-11.859 16.945-21.582 29.116-27.915" fill="none" stroke="#fff" stroke-linecap="round" stroke-linejoin="round" stroke-width="2.5007"/>
					
							
								<path d="m169.12 146.98c-6.206 10.204-15.102 18.586-25.704 24.16" fill="none" stroke="#fff" stroke-linecap="round" stroke-linejoin="round" stroke-width="2.5007"/>
					
							
								<path d="m57.354 77.446c6.532-10.221 15.818-18.521 26.804-23.848" fill="none" stroke="#fff" stroke-linecap="round" stroke-linejoin="round" stroke-width="2.5007"/>
					
							
								<path d="m165.92 141.23c-4.956 9.247-12.263 17.055-21.119 22.623" fill="none" stroke="#fff" stroke-linecap="round" stroke-linejoin="round" stroke-width="2.5007"/>
					
							
								<path d="m62.042 80.556c5.49-8.619 13.103-15.743 22.109-20.631" fill="none" stroke="#fff" stroke-linecap="round" stroke-linejoin="round" stroke-width="2.5007"/>
					
							
								<path d="m162.67 136.57c-4.688 9.839-12.21 18.071-21.503 23.646" fill="none" stroke="#fff" stroke-linecap="round" stroke-linejoin="round" stroke-width="2.5007"/>
					
							
								<path d="m64.289 86.57c5.105-9.407 12.861-17.167 22.265-22.272" fill="none" stroke="#fff" stroke-linecap="round" stroke-linejoin="round" stroke-width="2.5007"/>
				
							
								<path d="m156.9 135.56c-4.337 8.4-11.005 15.401-19.152 20.142" fill="none" stroke="#fff" stroke-linecap="round" stroke-linejoin="round" stroke-width="2.5007"/>
			
							
								<path d="m69.974 87.932c5.229-8.974 13.2-16.157 22.76-20.406" fill="none" stroke="#fff" stroke-linecap="round" stroke-linejoin="round" stroke-width="2.5007"/>
			
							
								<path d="m154.06 129.81c-4.11 9.957-11.709 18.104-21.283 22.904" fill="none" stroke="#fff" stroke-linecap="round" stroke-linejoin="round" stroke-width="2.5007"/>
				
							
								<path d="m73.236 92.376c4.24-8.186 10.941-14.89 19.127-19.13" fill="none" stroke="#fff" stroke-linecap="round" stroke-linejoin="round" stroke-width="2.5007"/>
				
							
								<path d="m185.23 140.64c-6.082 15.844-17.219 29.175-31.428 38.03" fill="none" stroke="#fff" stroke-linecap="round" stroke-linejoin="round" stroke-width="2.5007"/>
					</svg>
